{"title":"Orphan Black S02E03 HDTV x264 AAC [GWC].mp4","uid":10091132,"size":146760058,"categoryP":"video","categoryS":"tv_shows","magnet":"?xt=urn:btih:8be007dcc0370796db886f44a23084d9c47467a6&amp;dn=Orphan+Black+S02E03+HDTV+x264+AAC+%5BGWC%5D.mp4&amp;tr=udp%3A%2F%2Ftracker.openbittorrent.com%3A80&amp;tr=udp%3A%2F%2Fopen.demonii.com%3A1337&amp;tr=udp%3A%2F%2Ftracker.coppersurfer.tk%3A6969&amp;tr=udp%3A%2F%2Fexodus.desync.com%3A6969","seeders":2,"leechers":2,"uploader":"canc232","files":1,"time":1399198321,"description":"Orphan Black S02E03 HDTV x264 AAC [GWC] \n\n\nSTORYLINE :\nOrphan Black follows outsider, orphan and street-wise chameleon Sarah. After witnessing a woman's suicide, Sarah assumes the strangers identity - who happens to look just like her. Expecting to solve all her problems by cleaning out the dead woman's savings, Sarah is instead thrust headlong into a kaleidoscopic mystery as she realizes the dizzying truth - she and the dead woman are clones. As Sarah searches for answers, she discovers the chilling fact that there are more people like her out there - genetically identical individuals who were planted in unsuspecting birth parents and nurtured in completely different circumstances. With no idea who created the clones, she'll need to discover the reason in a hurry as an assassin is killing them one by one.\n\n\nSCREENS : &lt;a href=&quot;\nhttp://i.imgur.com/CarhgvR.jpg&quot; rel=&quot;nofollow&quot; target=&quot;_NEW&quot;&gt;\nhttp://i.imgur.com/CarhgvR.jpg&lt;/a&gt; &lt;a href=&quot;\nhttp://i.imgur.com/F89Fl4g.jpg&quot; rel=&quot;nofollow&quot; target=&quot;_NEW&quot;&gt;\nhttp://i.imgur.com/F89Fl4g.jpg&lt;/a&gt; &lt;a href=&quot;\nhttp://i.imgur.com/3IrLVvh.jpg&quot; rel=&quot;nofollow&quot; target=&quot;_NEW&quot;&gt;\nhttp://i.imgur.com/3IrLVvh.jpg&lt;/a&gt;\n\n\nMEDIA INFO :\nGeneral \nFormat : MPEG-4 \nFormat profile : Base Media \nFile size : 140 MiB \nDuration : 42mn 57s \nOverall bit rate mode : Variable \nOverall bit rate : 456 Kbps \n\nVideo \nFormat : AVC \nFormat profile : &lt;a class=&quot;__cf_email__&quot; href=&quot;/cdn-cgi/l/email-protection&quot; data-cfemail=&quot;7038191718303c435e40&quot;&gt;[email&amp;#160;protected]&lt;/a&gt;&lt;script cf-hash='f9e31' type=&quot;text/javascript&quot;&gt;\n/* &lt;![CDATA[ */!function(){try{var t=&quot;currentScript&quot;in document?document.currentScript:function(){for(var t=document.getElementsByTagName(&quot;script&quot;),e=t.length;e--;)if(t[e].getAttribute(&quot;cf-hash&quot;))return t[e]}();if(t&amp;&amp;t.previousSibling){var e,r,n,i,c=t.previousSibling,a=c.getAttribute(&quot;data-cfemail&quot;);if(a){for(e=&quot;&quot;,r=parseInt(a.substr(0,2),16),n=2;a.length-n;n+=2)i=parseInt(a.substr(n,2),16)^r,e+=String.fromCharCode(i);e=document.createTextNode(e),c.parentNode.replaceChild(e,c)}}}catch(u){}}();/* ]]&gt; */&lt;/script&gt; \nFormat settings, CABAC : Yes \nFormat settings, ReFrames : 4 frames \nDuration : 42mn 57s \nBit rate : 392 Kbps \nMaximum bit rate : 1 915 Kbps \nWidth : 720 pixels \nHeight : 404 pixels \nDisplay aspect ratio : 16:9 \nFrame rate mode : Constant \nFrame rate : 23.976 fps \nStream size : 121 MiB (86%) \nTitle : Orphan Black S02E03 HDTV x264 AAC [GWC] \nWriting library : x264 core\n\nAudio \nFormat : AAC \nFormat profile : HE-AAC / LC \nDuration : 42mn 57s \nBit rate mode : Variable \nChannel(s) : 2 channels \nSampling rate : 48.0 KHz / 24.0 KHz \nCompression mode : Lossy \nStream size : 18.4 MiB (13%) \nLanguage : English ","torrent":{"xt":"urn:btih:8be007dcc0370796db886f44a23084d9c47467a6","amp;dn":"Orphan+Black+S02E03+HDTV+x264+AAC+%5BGWC%5D.mp4","amp;tr":["udp%3A%2F%2Ftracker.openbittorrent.com%3A80","udp%3A%2F%2Fopen.demonii.com%3A1337","udp%3A%2F%2Ftracker.coppersurfer.tk%3A6969","udp%3A%2F%2Fexodus.desync.com%3A6969"],"infoHash":"8be007dcc0370796db886f44a23084d9c47467a6","infoHashBuffer":{"type":"Buffer","data":[139,224,7,220,192,55,7,150,219,136,111,68,162,48,132,217,196,116,103,166]},"announce":[],"urlList":[]}}